<?xml version="1.0" encoding="UTF-8" standalone="no"?>
<!DOCTYPE svg PUBLIC "-//W3C//DTD SVG 1.1//EN" "http://www.w3.org/Graphics/SVG/1.1/DTD/svg11.dtd">
<svg width="100%" height="100%" viewBox="0 0 800 800" version="1.1" xmlns="http://www.w3.org/2000/svg" xmlns:xlink="http://www.w3.org/1999/xlink" xml:space="preserve" xmlns:serif="http://www.serif.com/" style="fill-rule:evenodd;clip-rule:evenodd;stroke-linejoin:round;stroke-miterlimit:2;">
    <g transform="matrix(25.707767,0,0,25.707767,0.012854,0)">
        <g transform="matrix(1,0,0,1,0.233393,0.005362)">
            <path d="M12.095,8.663C11.675,8.603 12.103,8.676 11.698,8.644C10.784,10.552 10.142,11.853 9.878,14.04C12.677,14.03 17.335,15.258 18.821,22.63C19.552,26.279 20.989,28.41 23.918,28.615C26.336,27.238 27.761,25.424 29.144,23.013C26.749,15.561 20.362,9.85 12.095,8.663Z" style="fill-rule:nonzero;"/>
            <path d="M6.394,16.23C4.261,16.554 3.862,17.437 3.061,18.773C1.927,20.663 2.075,22.561 2.411,23.77C4.575,26.924 6.317,29.319 10.162,30.21C7.28,26.599 6.409,22.458 6.409,17.259C6.408,16.927 6.38,16.56 6.394,16.23Z" style="fill-rule:nonzero;"/>
            <path d="M8.648,7.451C9.237,6.347 10.618,4.468 11.387,3.486C9.552,2.846 9.767,2.177 9.711,1.182C5.956,2.769 2.676,5.981 1.11,9.751C2.176,9.087 3.491,8.426 4.814,8.041C6.155,7.651 8.535,7.448 8.648,7.451Z" style="fill-rule:nonzero;"/>
            <path d="M6.536,15.174C6.78,12.948 7.447,10.338 8.326,8.372C4.831,8.379 3.041,9.297 0.663,11.187C0.331,12.446 0,14.196 0,15.562C0,17.542 0.564,19.791 1.239,21.537C1.299,20.513 1.583,19.206 2.168,18.224C3.218,16.472 3.841,15.524 6.536,15.174Z" style="fill-rule:nonzero;"/>
            <path d="M12.013,2.801C13.042,1.652 14.294,0.938 15.549,0.038C15.449,0.025 15.386,0.005 15.327,0.005C12.345,0.005 10.641,0.897 10.641,0.897C10.61,1.081 9.743,2.282 12.013,2.801Z" style="fill-rule:nonzero;"/>
            <path d="M28.184,6.471L28.001,6.218C25.087,2.576 20.46,4.626 20.411,4.645C19.132,5.175 17.81,5.257 14.298,4.577C13.547,5.477 12.673,6.733 12.089,7.762C12.343,7.788 11.829,7.725 12.089,7.762C18.023,8.613 23.306,11.495 26.899,16.29C28.149,17.96 28.991,19.997 29.722,21.887C30.522,20.017 31.118,17.722 31.118,15.562C31.115,12.167 30.029,9.027 28.184,6.471Z" style="fill-rule:nonzero;"/>
            <path d="M20.068,3.871C21.154,3.419 23.166,2.957 25.088,3.323C23.199,1.907 21.287,0.881 18.871,0.445C17.424,1.328 16.177,2.584 15.002,3.794C18.433,4.393 19.402,4.146 20.068,3.871Z" style="fill-rule:nonzero;"/>
            <path d="M15.757,24.132C14.464,17.71 12.232,17.423 9.571,17.475C9.55,17.842 9.579,17.31 9.579,17.681C9.579,23.034 11.345,27.499 14.682,31.075C15.188,31.122 15.041,31.111 15.562,31.111C17.585,31.111 18.628,31.071 20.406,30.366C17.955,29.555 16.449,27.576 15.757,24.132Z" style="fill-rule:nonzero;"/>
        </g>
    </g>
</svg>
