<?xml version="1.0" encoding="UTF-8" standalone="no"?>
<!DOCTYPE svg PUBLIC "-//W3C//DTD SVG 1.1//EN" "http://www.w3.org/Graphics/SVG/1.1/DTD/svg11.dtd">
<svg width="100%" height="100%" viewBox="0 0 800 800" version="1.1" xmlns="http://www.w3.org/2000/svg" xmlns:xlink="http://www.w3.org/1999/xlink" xml:space="preserve" xmlns:serif="http://www.serif.com/" style="fill-rule:evenodd;clip-rule:evenodd;stroke-linejoin:round;stroke-miterlimit:2;">
    <g>
        <g>
            <path d="M306.938,226.717C296.141,225.174 285.498,224.043 275.086,223.221C251.589,272.271 235.753,325.563 228.966,381.786C300.922,381.529 420.669,411.247 458.871,600.765C477.663,694.572 522.6,742.363 597.898,747.633C660.06,712.234 711.681,660.587 747.235,598.605C685.665,407.031 519.464,257.232 306.938,226.717Z" style="fill:white;fill-rule:nonzero;"/>
            <path d="M192.384,418.24C137.549,426.569 99.296,448.266 78.704,482.612C49.552,531.2 61.352,594.981 69.989,626.061C125.621,707.144 210.405,766.734 309.252,789.64C235.162,696.809 191.767,577.345 191.767,443.69C191.741,435.155 192.024,426.723 192.384,418.24Z" style="fill:white;fill-rule:nonzero;"/>
            <path d="M255.342,188.541C270.484,160.159 287.966,133.218 307.735,107.973C260.561,91.52 246.113,56.968 244.674,31.389C148.141,72.187 70.812,149.748 30.554,246.666C91.944,208.439 162.229,188.258 239.635,188.258C244.802,188.309 250.098,188.438 255.342,188.541Z" style="fill:white;fill-rule:nonzero;"/>
            <path d="M195.032,384.1C201.305,326.874 216.447,272.271 239.044,221.729C149.195,221.909 74.18,250.008 13.047,298.596C4.512,330.962 0.013,364.947 0.013,400.064C0.013,450.966 9.525,499.785 26.877,544.67C28.42,518.346 34.821,490.736 49.86,465.491C76.853,420.451 125.75,393.097 195.032,384.1Z" style="fill:white;fill-rule:nonzero;"/>
            <path d="M331.335,80.003C357.788,50.464 387.48,23.78 419.744,0.643C413.162,0.308 406.555,0.129 400.026,0.129C323.365,0.129 278.557,21.055 278.557,21.055C277.76,25.785 272.978,66.66 331.335,80.003Z" style="fill:white;fill-rule:nonzero;"/>
            <path d="M724.561,166.355L723.866,166.843C648.954,73.216 527.999,121.932 526.739,122.42C493.859,136.046 433.857,134.143 343.571,116.662C324.265,139.799 306.964,164.71 291.95,191.163C298.48,191.831 305.113,192.603 311.797,193.554C464.347,215.431 599.158,295.511 691.526,418.78C723.661,461.711 749.317,508.088 768.11,556.676C788.676,508.602 799.987,455.593 799.987,400.064C799.91,312.786 771.991,232.064 724.561,166.355Z" style="fill:white;fill-rule:nonzero;"/>
            <path d="M513.911,91.52C541.83,79.9 589.569,70.028 638.979,79.437C590.417,43.035 533.243,17.661 471.133,6.453C433.934,29.153 399.897,56.429 369.691,87.535C457.894,102.934 496.79,98.589 513.911,91.52Z" style="fill:white;fill-rule:nonzero;"/>
            <path d="M426.093,607.372C392.853,442.276 294.47,413.767 226.061,415.103C225.521,424.538 225.264,433.999 225.264,443.536C225.264,581.15 274.675,705.935 360.461,797.866C373.47,799.075 386.683,799.794 400.077,799.794C452.084,799.794 501.906,789.845 547.614,771.721C484.604,750.872 443.883,695.909 426.093,607.372Z" style="fill:white;fill-rule:nonzero;"/>
        </g>
    </g>
</svg>
